/* XPM */
static char *dummy[]={
"18 56 759 2",
"Qt c #000000",
".d c #020101",
".c c #160a01",
"jv c #1e0e02",
"jh c #211102",
"#n c #24170b",
"ju c #271002",
"jF c #291003",
"jE c #2a1303",
".a c #2a231a",
"## c #2b1809",
"#0 c #2b1b14",
".l c #2c1d15",
".Z c #2d1f10",
"aH c #2e1c10",
"a5 c #2e2118",
".D c #2f1c10",
"#a c #2f1c13",
"jD c #301403",
"jg c #30271a",
"#M c #321f19",
"ad c #322219",
"aQ c #322619",
".e c #33211c",
"a4 c #33221f",
".b c #332719",
"bw c #341e0b",
"aP c #34211c",
"bh c #34261f",
"#A c #352619",
"aW c #362415",
"as c #36261d",
"#2 c #362f28",
".u c #363230",
"av c #371d10",
"bx c #371e0c",
"ag c #382012",
"#3 c #382215",
"aG c #382511",
"#O c #392619",
"by c #3a200c",
"aV c #3a2e1c",
"a6 c #3b281b",
"aR c #3c2818",
".f c #3d2a20",
"af c #3d332c",
"jt c #3e2004",
"aA c #3f2a1c",
"bi c #3f2a23",
"bg c #3f2c1d",
"bl c #402b17",
".P c #402d22",
"a8 c #412a18",
"am c #412c19",
".v c #413022",
"au c #41332b",
".E c #42342a",
"#L c #43281a",
"aB c #433323",
"ae c #433a3a",
"bz c #442812",
"aK c #442c1d",
"#z c #443029",
"at c #453936",
"ar c #462e19",
"bj c #473027",
".N c #473220",
"#o c #47351e",
"aC c #49311e",
"a3 c #493226",
"bk c #493627",
".k c #493f3b",
".1 c #4a3326",
".j c #4a3b32",
"#B c #4b321c",
"jf c #4b402e",
"i1 c #4b423a",
"#l c #4c3527",
"aI c #4c3832",
"b. c #4c3d2b",
"c# c #4c3e2e",
"bA c #4d2d14",
"aO c #4d3222",
"bm c #4e371f",
"cx c #4e3c15",
"a0 c #4f3118",
"jn c #4f360c",
".m c #4f382c",
"bv c #50371f",
"#y c #50372c",
".F c #503e2c",
"a7 c #513829",
"al c #513923",
"#Z c #523625",
".Y c #523b24",
".s c #534038",
"#8 c #54391c",
"ac c #543924",
"cy c #543f19",
".h c #543f2d",
".# c #544843",
"aS c #553724",
".i c #554233",
".g c #554535",
"aL c #56361f",
".C c #563d2b",
"#N c #564f48",
"bf c #573c25",
"#b c #573e2f",
"ji c #573f13",
"aJ c #57443c",
"cO c #594722",
"#m c #594c47",
"az c #5a3b26",
"#9 c #5b3f29",
"aZ c #5c4132",
"cN c #5c4a26",
"#1 c #5c5453",
"bu c #5e3d1e",
"cb c #5e401c",
"aU c #5e4b36",
"#P c #603e28",
"an c #60442c",
"be c #613d21",
"cw c #61451c",
"#. c #61452d",
"aX c #62473c",
"a2 c #63452e",
"#k c #63452f",
"bN c #63482a",
"jo c #634917",
"a9 c #63523f",
"b# c #644e3c",
"bF c #645954",
"#T c #654628",
"ch c #654e28",
"cz c #66491f",
".o c #664b34",
"jc c #664c19",
"#U c #67452c",
"je c #67563d",
"jm c #684818",
"cM c #685026",
"jT c #68592b",
"bM c #694a2c",
"ci c #694f29",
"c4 c #695733",
"aD c #6a472d",
"cg c #6a4a21",
"js c #6b470f",
"aw c #6b4730",
"i6 c #6b4d0f",
"bO c #6c4e30",
"jC c #6c5310",
"jd c #6c5731",
"c3 c #6d5b39",
"ak c #6e492e",
"bn c #6f5139",
".M c #6f553b",
"i8 c #6f561e",
"ca c #6f5b42",
"i7 c #705124",
"cP c #70592e",
"cv c #71552a",
"dg c #715d36",
"cf c #725027",
".y c #725336",
"aT c #725540",
"aY c #735c56",
"jQ c #73622f",
"#G c #744e34",
"dJ c #745b30",
"#t c #754b32",
"#s c #755037",
"iY c #755a22",
"dI c #756035",
"dt c #756036",
"jS c #75613a",
"bP c #765231",
"#F c #765237",
"#K c #76573f",
".Q c #76634f",
"#f c #77503d",
"bL c #775534",
"b2 c #775634",
"b3 c #775d3b",
"#x c #775e49",
"c2 c #776237",
"df c #776336",
"ds c #776435",
"ah c #78503b",
"jG c #78591e",
"du c #785f36",
"dH c #786536",
".O c #786c61",
"bB c #79563a",
"i9 c #7a5f1c",
"dh c #7a623b",
"dW c #7b6639",
"dV c #7b6738",
"b1 c #7c5834",
"dX c #7c6436",
".r c #7c6455",
"jR c #7c6a3b",
"a. c #7d5c42",
"iZ c #7d6433",
"cL c #7d673c",
"cc c #7e592c",
".0 c #7e6d66",
"jU c #7e7039",
"bt c #7f5634",
"jb c #7f5e18",
".I c #7f5e3e",
"jV c #7f6e2e",
"bd c #805a3d",
"i2 c #806e5a",
"jL c #80704b",
"i4 c #816523",
"jP c #817144",
"a1 c #826145",
"jl c #82641d",
"iR c #826533",
"jy c #82745c",
"jw c #827765",
"aN c #836046",
"b4 c #836442",
"cn c #836641",
"jK c #836d3a",
"dr c #836d40",
"de c #836e41",
"#g c #846447",
".J c #846641",
".U c #846844",
"#4 c #855d48",
"e# c #85703f",
"c5 c #857045",
"cj c #866239",
".6 c #866a48",
"dG c #866e41",
"#7 c #875f40",
"eo c #87723f",
".t c #877975",
".T c #88664b",
"bc c #886651",
"c1 c #887549",
"jM c #887d66",
"cm c #89623a",
"#Y c #896548",
"jp c #896626",
".z c #896848",
"i3 c #897045",
"ea c #897142",
"dU c #897143",
"iM c #89775c",
"ce c #8a673a",
"jO c #8a7e5c",
"iQ c #8b6c35",
"aF c #8b6f54",
"jz c #8b774b",
"aM c #8c674a",
"iX c #8c6e2c",
"cu c #8c6f43",
"jk c #8c721c",
"jj c #8c7229",
"ep c #8c7442",
"bb c #8c756b",
"e. c #8c7745",
"jx c #8c8470",
"#V c #8d694d",
"di c #8d7344",
"eD c #8d7741",
"jW c #8d7932",
"iP c #8e6d32",
"ba c #8e6d5d",
"b0 c #8f683e",
"cd c #8f693a",
"j. c #8f6f22",
"eE c #8f7843",
"ao c #906849",
"cA c #906a3f",
"iN c #907447",
"eR c #907a43",
"bX c #916c4b",
".5 c #916c56",
"iO c #917037",
"dY c #917544",
"dK c #917545",
".w c #917865",
"bK c #926b45",
"ab c #926d4c",
".n c #927967",
"eS c #927c46",
"aE c #936e53",
"dv c #937748",
"e5 c #937941",
"d9 c #937a4b",
"en c #937c4a",
"b5 c #946d4a",
"cQ c #947848",
"jY c #948247",
"bQ c #956b48",
"iT c #957542",
"dj c #957a45",
"jZ c #95875b",
"bo c #967159",
"iS c #967748",
"cK c #967f52",
"jA c #96803b",
"jH c #97732a",
"c. c #977b57",
"jB c #978030",
"ck c #986b43",
"j# c #98741f",
"e4 c #988046",
"bp c #997058",
"jq c #997127",
"#S c #997252",
"b9 c #997653",
"cl c #9a6c43",
"bC c #9a7558",
".X c #9a7d60",
"eC c #9a814d",
"bH c #9b7555",
"iU c #9b793e",
"iC c #9b8147",
"fg c #9b8149",
"eQ c #9b824f",
"gJ c #9b886a",
"cG c #9b8c6e",
"br c #9c785d",
"i5 c #9c7e35",
"c6 c #9c8554",
"i0 c #9c8b6f",
"bD c #9d765a",
"iV c #9d7b39",
".p c #9d8067",
"eb c #9d8150",
"c0 c #9d885b",
"cq c #9d8c72",
"j0 c #9d9478",
"#Q c #9e7154",
"ax c #9e7256",
"dw c #9e7f4b",
"em c #9e8455",
"gu c #9e8b6d",
"ih c #9e8f74",
"dL c #9f804d",
"eq c #9f8351",
"dd c #9f875a",
"dZ c #a0814e",
"dq c #a0865b",
"e3 c #a0884f",
"co c #a08c67",
"iL c #a08f76",
"bE c #a17b5f",
"iW c #a17f3b",
"iE c #a18043",
"fv c #a18854",
"jX c #a18d48",
"h6 c #a19175",
"bV c #a19183",
"aq c #a27f5f",
"jJ c #a28442",
"eB c #a28656",
"dF c #a2875c",
".2 c #a28d79",
"eh c #a29579",
"eY c #a2957b",
"eL c #a2977e",
"#H c #a37e5f",
"eF c #a38755",
"dz c #a38d62",
"dO c #a38d64",
"dA c #a3906b",
"gf c #a39273",
"cW c #a39373",
"gY c #a39376",
"fb c #a3957c",
"ew c #a3977c",
"cF c #a39881",
"d. c #a3997e",
"cV c #a3997f",
"cp c #a39984",
"#5 c #a47154",
"iD c #a48449",
"ff c #a48b53",
"dP c #a4916c",
"ev c #a4926d",
"dQ c #a49477",
"bZ c #a57b4e",
"eP c #a58a59",
"fI c #a58d5c",
"c8 c #a58e64",
"eX c #a58e69",
"iv c #a5916e",
"dC c #a59476",
"cE c #a59572",
"hR c #a59579",
"fn c #a5957c",
"fa c #a5957f",
"dn c #a59681",
"dB c #a59784",
"bs c #a67d5a",
"ja c #a6812e",
"iJ c #a6875b",
"dT c #a68b5d",
"fH c #a68f5d",
"ii c #a68f69",
"d2 c #a69069",
"h5 c #a6916b",
"dm c #a6916d",
"ig c #a6926b",
"d# c #a69474",
"h# c #a6967a",
"d4 c #a6977a",
"f2 c #a6977c",
"#C c #a78466",
"gP c #a7884a",
"gO c #a78a4d",
"eT c #a78b59",
"fu c #a78e59",
"eJ c #a7906b",
"fD c #a7936d",
"d3 c #a7946f",
"do c #a79476",
"ge c #a7967c",
"f3 c #a79778",
"fo c #a7987d",
"e2 c #a88d58",
"cD c #a8906a",
"fN c #a8966f",
"fc c #a89671",
"gI c #a8967c",
"fO c #a8987b",
"fC c #a8997d",
"eg c #a89986",
"bU c #a98966",
"it c #a98d5c",
"hG c #a98e68",
"bW c #a98e78",
"bq c #a98e7e",
"ft c #a98f5c",
"h4 c #a98f63",
"fl c #a99069",
"cr c #a9906c",
"eu c #a9926c",
"fP c #a9936d",
"fp c #a99470",
"d5 c #a99672",
"ex c #a99673",
"gX c #a9967a",
"cU c #a99774",
"hl c #a9997d",
"iF c #aa8a4b",
"g6 c #aa8a4f",
"iK c #aa8a63",
"hX c #aa8b5a",
"g4 c #aa8d53",
"im c #aa8d56",
"hF c #aa8d64",
"gA c #aa8e50",
"ie c #aa8e5e",
"h3 c #aa8e60",
"hS c #aa916c",
"gv c #aa926a",
"gt c #aa926b",
"f4 c #aa936d",
"cT c #aa946c",
"f# c #aa9472",
"fM c #aa956b",
"dR c #aa956f",
"fB c #aa9571",
"ei c #aa9774",
"ix c #aa9870",
"jN c #aaa08c",
"ai c #ab795c",
"#u c #ab8667",
"in c #ab8b55",
"hd c #ab8e55",
"hj c #ab8e64",
"gW c #ab8e67",
"gH c #ab9068",
"hw c #ab906a",
"gg c #ab936c",
"gZ c #ab936d",
"fA c #ab956c",
"da c #ab956d",
"dp c #ab956f",
"cH c #ab9670",
"f1 c #ab976f",
"h. c #ab9772",
"ef c #ab9873",
"hx c #ab9b7e",
"bT c #ac8865",
"g5 c #ac8c51",
"io c #ac8c54",
"iB c #ac8c56",
"hY c #ac8c5b",
"hq c #ac8e59",
"i# c #ac8e5b",
"hJ c #ac8e5c",
"gz c #ac8f53",
"hP c #ac8f65",
"fe c #ac905c",
"gV c #ac9064",
"fG c #ac9161",
"iu c #ac9162",
"if c #ac9262",
"gs c #ac9368",
"hm c #ac946e",
"cX c #ac966f",
"fm c #ac9674",
"eK c #ac9875",
"bI c #ad8057",
"hf c #ad8d55",
"he c #ad8e56",
"hA c #ad8e5c",
"ct c #ad8e5f",
"gm c #ad925b",
"hQ c #ad926a",
"fV c #ad9362",
"c9 c #ad9773",
"jr c #ae833d",
"bJ c #ae8359",
"ay c #ae8368",
"gQ c #ae8e51",
"ia c #ae8e5c",
"g3 c #ae905c",
"gG c #ae9167",
"hk c #ae936d",
"bG c #ae937e",
"e6 c #ae945c",
"f. c #ae9570",
"gd c #ae9971",
"#E c #af8868",
"hK c #af8e5d",
"hr c #af8f5b",
"ij c #af9063",
"hc c #af915d",
"ec c #af9160",
"hv c #af9169",
"iI c #af925d",
"f0 c #af996e",
"jI c #b08b3f",
"hB c #b08f5f",
"ip c #b09058",
"bY c #b1865b",
"hs c #b18f5c",
"hZ c #b18f5d",
"gB c #b19256",
"gN c #b19258",
"hp c #b1925e",
"h7 c #b19367",
"g2 c #b19460",
"fU c #b19565",
"fw c #b19763",
"fx c #b19764",
"cJ c #b19768",
"gc c #b19a70",
"g7 c #b2915a",
"hC c #b2915f",
"gR c #b29255",
"er c #b29363",
"gl c #b2945d",
"f9 c #b29464",
"ho c #b29561",
"fs c #b29666",
"cY c #b29a6b",
"b8 c #b38863",
"bS c #b38866",
"iG c #b39557",
"i. c #b39562",
"iy c #b39663",
"ee c #b3976c",
"fh c #b39861",
"d8 c #b3986b",
"fW c #b39969",
"cS c #b3996c",
"g. c #b39a66",
"cZ c #b39c6c",
"ib c #b4925f",
"hL c #b49361",
"gK c #b49566",
"iH c #b4975d",
"is c #b49762",
"iw c #b4a995",
"b6 c #b58862",
"gy c #b5955d",
"hg c #b5955e",
"g9 c #b59667",
"cR c #b59767",
"hT c #b5976b",
"gn c #b59861",
"e7 c #b59863",
"hW c #b59864",
"ek c #b5986c",
"fJ c #b59b69",
"#w c #b59d80",
"#r c #b69073",
"il c #b69766",
"eG c #b69767",
"hi c #b69768",
"g0 c #b6986c",
"g1 c #b69967",
"el c #b69a6c",
"fi c #b69b65",
"dc c #b69b6e",
"fK c #b69c6a",
"ey c #b69e74",
"gS c #b7965c",
"gC c #b7975c",
"ir c #b79761",
"ha c #b7986d",
"id c #b79966",
"h9 c #b79967",
"hI c #b79a67",
"cI c #b79d70",
"d6 c #b79e72",
"dD c #b79e73",
"fz c #b79f73",
"eM c #b79f75",
"iq c #b8975f",
"h0 c #b89764",
"ik c #b89767",
"gM c #b89862",
"h8 c #b8996a",
"cs c #b8996d",
"hb c #b89b69",
"gr c #b89b6d",
"fX c #b89d6c",
"dy c #b89d6d",
"dN c #b89d6e",
"dE c #b89d70",
"g# c #b89e6b",
"fk c #b89e72",
"dl c #b89f6d",
"b7 c #b98864",
"iA c #b99663",
"gw c #b99865",
"gk c #b99965",
"eU c #b99a6a",
"hy c #b99a6e",
"gh c #b99b6d",
"go c #b99c65",
"dx c #b99c67",
"eI c #b99d74",
"dk c #b99e68",
"eN c #b99e71",
"db c #b99e73",
"eZ c #b9a174",
"iz c #ba9862",
"gx c #ba9863",
"hM c #ba9868",
"ic c #ba9964",
"gL c #ba9965",
"ht c #ba9968",
"hh c #ba9a68",
"dM c #ba9c69",
"hV c #ba9d6b",
"et c #ba9e73",
"dS c #ba9f72",
"e9 c #ba9f74",
"gb c #baa073",
"cB c #bb9568",
"gT c #bb9963",
"gD c #bb9b62",
"g8 c #bb9b67",
"gF c #bb9b6d",
"hU c #bb9c6e",
"eH c #bb9c6f",
"#h c #bb9c7a",
"f5 c #bb9f73",
"ej c #bba276",
"c7 c #bba370",
"gi c #bc9a6a",
"gE c #bc9b66",
"f8 c #bc9b6d",
".9 c #bc9b7c",
"fT c #bc9c6f",
"#e c #bc9d86",
"hn c #bc9f6d",
"fQ c #bc9f74",
"eA c #bca072",
"e0 c #bca171",
"d1 c #bca174",
"ap c #bd926e",
"gj c #bd9b69",
"cC c #bd9b72",
"gU c #bd9c6d",
"gq c #bd9e6b",
"hH c #bd9e6f",
"hu c #bd9e71",
"eO c #bd9f70",
"eV c #bd9f73",
"d0 c #bda06e",
"d7 c #bda074",
"#v c #bda07f",
"fY c #bda171",
"#p c #bda283",
"hN c #be9e6f",
"fr c #be9f70",
"gp c #bea06a",
"hz c #bea16e",
"ga c #bea270",
"eW c #bea279",
"fy c #bea373",
"ez c #bea376",
"fL c #bea475",
"fF c #bf9d72",
"#j c #bf9e80",
"ed c #bfa171",
"fd c #bfa270",
"e8 c #bfa272",
"fZ c #bfa474",
"h1 c #c09f6d",
"hE c #c0a075",
"h2 c #c0a172",
"fq c #c0a275",
"#c c #c1a994",
"aj c #c29275",
"f7 c #c2a072",
"hD c #c2a272",
"#J c #c2a381",
"e1 c #c2a471",
"fj c #c2a675",
".G c #c2ac92",
"f6 c #c3a175",
"fS c #c3a275",
"hO c #c3a376",
"#6 c #c49677",
"bR c #c49875",
"#R c #c49876",
"aa c #c49b76",
"a# c #c49c79",
"#X c #c4a07a",
"fR c #c4a478",
"fE c #c4a67b",
".B c #c4a68e",
"es c #c4a879",
".7 c #c4a884",
"#D c #c59f7e",
"#W c #c5a07c",
"#I c #c5a583",
"#q c #c5a685",
"#i c #c5a785",
".8 c #c5a986",
".W c #c5ac8a",
".V c #c5ae89",
".A c #c6ab8e",
".x c #c6ad92",
".H c #c6ae91",
".S c #c6af92",
".4 c #c6af96",
".K c #c6b18e",
".L c #c6b99a",
".q c #c7b8a2",
".R c #c7bca3",
"#d c #c7c0a7",
".3 c #c8c4ac",
"QtQtQtQtQtQt.#.a.b.c.dQtQtQtQtQtQtQt",
"QtQtQtQtQt.e.f.g.h.i.j.kQtQtQtQtQtQt",
"QtQtQtQt.l.m.n.o.p.q.r.s.tQtQtQtQtQt",
"QtQtQt.u.v.w.x.y.z.A.B.C.DQtQtQtQtQt",
"QtQtQt.E.F.G.H.I.J.K.L.M.N.OQtQtQtQt",
"QtQtQt.P.Q.R.S.T.U.V.W.X.Y.ZQtQtQtQt",
"QtQt.0.1.2.3.4.5.6.7.8.9#.##QtQtQtQt",
"QtQt#a#b#c#d#e#f#g#h#i#j#k#l#mQtQtQt",
"QtQt#n#o#p#q#r#s#t#u#v#w#x#y#zQtQtQt",
"QtQt#A#B#C#D#E#F#G#H#I#J#K#L#MQtQtQt",
"Qt#N#O#P#Q#R#S#T#U#V#W#X#Y#Z#0#1QtQt",
"Qt#2#3#4#5#6#7#8#9a.a#aaabacadaeQtQt",
"QtafagahaiajakalamanaoapaqarasatQtQt",
"QtauavawaxayazaAaBaCaDaEaFaGaHaIQtQt",
"QtaJaKaLaMaNaOaPaQaRaSaTaUaVaWaXQtQt",
"QtaYaZa0a1a2a3a4a5a6a7a8a9b.b#baQtQt",
"QtbbbcbdbebfbgbhbibjbkblbmbnbobpQtQt",
"QtbqbrbsbtbubvbwbxbybzbAbBbCbDbEbFQt",
"QtbGbHbIbJbKbLbMbNbObPbQbRbSbTbUbVQt",
"QtbWbXbYbZb0b1b2b3b4b5b6b7b8b9c.c#Qt",
"QtcacbcccdcecfcgchcicjckclcmcncocpQt",
"QtcqcrcsctcucvcwcxcyczcAcBcCcDcEcFQt",
"QtcGcHcIcJcKcLcMcNcOcPcQcRcScTcUcVQt",
"QtcWcXcYcZc0c1c2c3c4c5c6c7cZc8c9d.Qt",
"Qtd#dadbdcdddedfdgdhdidjdkdlc8dmdnQt",
"QtdodpdbdcdqdrdsdtdudvdwdxdydzdAdBQt",
"QtdCdpdDdEdFdGdHdIdJdKdLdMdNdOdPdBQt",
"QtdQdRdDdSdTdUdVdWdXdYdZd0d1d2d3dBQt",
"Qtd4d5d6d7d8d9e.e#eaebecedeedaefegQt",
"QteheiejekelemeneoepeqereseteuevegQt",
"QtewexeyezeAeBeCeDeEeFeGeHeIeJeKegQt",
"QteLexeMeNeOePeQeReSeTeUeVeWeXexegQt",
"QteYexeZe0e1e2e3e4e5e6e7e8e9f.f#faQt",
"QtfbfceZe0fdfeffe3fgfhfifjfkflfmfnQt",
"Qtfofpe9fqfrfsftfufvfwfxfyfzfAfBfnQt",
"QtfCfDe9fEfFcsfGfHfIfJfKfLfzfMfNfnQt",
"QtfOfPfQfRfSfTfUfVfWfXfYfZd6f0f1f2Qt",
"Qtf3f4f5f6f7f8f9fVg.g#gafjgbgcgdgeQt",
"QtgfggghgigjgkglgmgngogpgqgrgsgtgeQt",
"QtgugvcRgwgxgygzgAgBgCgDgEgFgGgHgIQt",
"QtgJgtgKgLgMgNgOgPgQgRgSgTgUgVgWgXQt",
"QtgYgZg0gFg1g2g3g4g5g6g7g8g9gVgHh.Qt",
"Qth#gZhagFhbg2hchdhehfhghhhihjhkh.Qt",
"QthlhmcsgFhnhohphqhrhsgLhthuhvhwh.Qt",
"QthxhmhygFhzhohphAhBhCgjhDhEhFhGh.Qt",
"QthlgZhyhHhnhIhphJhKhLhMhNhOhPhQdmQt",
"QthRhShThUhVhWg3hXhYhZh0h1h2h3h4h5Qt",
"Qth6cDh7h8h9i.hqi#iaibicgMidieifigQt",
"Qtihiiijikilg2iminioipiqirisitiuivQt",
"QtiwixiyiziAiBiCiDiEiFiGiHiIiJiKiLQt",
"QtQtiMiNiOiPiQiRiSiTiUiViWiXiYiZi0Qt",
"Qti1i2i3i4i5i6i7i8i9j.j#jajbjcjdjejf",
"Qtjgjhjijjjkjljmjnjojpjqjrjsjtjujvjw",
"QtjxjyjzjAjBjCjDjEjFjGjHjIjJjKjLjMQt",
"QtQtjNjOjPjQjRjSjTjUjVjWjXjYjZj0QtQt",
"QtQtQtQtQtQtQtQtQtQtQtQtQtQtQtQtQtQt"};
